<?xml version="1.0" encoding="UTF-8" standalone="no"?>
<!DOCTYPE svg PUBLIC "-//W3C//DTD SVG 1.1//EN"
 "http://www.w3.org/Graphics/SVG/1.1/DTD/svg11.dtd">
<!-- Generated by graphviz version 7.0.0 (0)
 -->
<!-- Pages: 1 -->
<svg width="1765pt" height="1638pt"
 viewBox="0.00 0.00 1765.00 1638.29" xmlns="http://www.w3.org/2000/svg" xmlns:xlink="http://www.w3.org/1999/xlink">
<g id="graph0" class="graph" transform="scale(1 1) rotate(0) translate(4 1634.29)">
<polygon fill="white" stroke="none" points="-4,4 -4,-1634.29 1761,-1634.29 1761,4 -4,4"/>
<!-- ast_node_0 -->
<g id="node1" class="node">
<title>ast_node_0</title>
<polygon fill="none" stroke="black" points="42.5,-1374.79 42.5,-1410.79 278.5,-1410.79 278.5,-1374.79 42.5,-1374.79"/>
<text text-anchor="middle" x="69.5" y="-1389.09" font-family="Times,serif" font-size="14.00">Ident</text>
<polyline fill="none" stroke="black" points="96.5,-1374.79 96.5,-1410.79"/>
<text text-anchor="middle" x="146" y="-1389.09" font-family="Times,serif" font-size="14.00">symbol: 1:4</text>
<polyline fill="none" stroke="black" points="195.5,-1374.79 195.5,-1410.79"/>
<text text-anchor="middle" x="237" y="-1389.09" font-family="Times,serif" font-size="14.00">name: fib</text>
</g>
<!-- ast_node_1 -->
<g id="node2" class="node">
<title>ast_node_1</title>
<polygon fill="none" stroke="black" points="297,-1228.79 297,-1264.79 524,-1264.79 524,-1228.79 297,-1228.79"/>
<text text-anchor="middle" x="324" y="-1243.09" font-family="Times,serif" font-size="14.00">Ident</text>
<polyline fill="none" stroke="black" points="351,-1228.79 351,-1264.79"/>
<text text-anchor="middle" x="400.5" y="-1243.09" font-family="Times,serif" font-size="14.00">symbol: 1:8</text>
<polyline fill="none" stroke="black" points="450,-1228.79 450,-1264.79"/>
<text text-anchor="middle" x="487" y="-1243.09" font-family="Times,serif" font-size="14.00">name: n</text>
</g>
<!-- ast_node_2 -->
<g id="node3" class="node">
<title>ast_node_2</title>
<polygon fill="none" stroke="black" points="208.5,-1301.79 208.5,-1337.79 438.5,-1337.79 438.5,-1301.79 208.5,-1301.79"/>
<text text-anchor="middle" x="246" y="-1316.09" font-family="Times,serif" font-size="14.00">Variable</text>
<polyline fill="none" stroke="black" points="283.5,-1301.79 283.5,-1337.79"/>
<text text-anchor="middle" x="333" y="-1316.09" font-family="Times,serif" font-size="14.00">symbol: 1:8</text>
<polyline fill="none" stroke="black" points="382.5,-1301.79 382.5,-1337.79"/>
<text text-anchor="middle" x="410.5" y="-1316.09" font-family="Times,serif" font-size="14.00">name</text>
</g>
<!-- ast_node_2&#45;&gt;ast_node_1 -->
<g id="edge1" class="edge">
<title>ast_node_2:name&#45;&gt;ast_node_1</title>
<path fill="none" stroke="black" d="M410.5,-1301.29C410.5,-1293.05 410.5,-1284.1 410.5,-1275.92"/>
<polygon fill="black" stroke="black" points="414,-1276.17 410.5,-1266.17 407,-1276.17 414,-1276.17"/>
</g>
<!-- ast_node_3 -->
<g id="node4" class="node">
<title>ast_node_3</title>
<polygon fill="none" stroke="black" points="0,-897.19 0,-933.19 227,-933.19 227,-897.19 0,-897.19"/>
<text text-anchor="middle" x="27" y="-911.49" font-family="Times,serif" font-size="14.00">Ident</text>
<polyline fill="none" stroke="black" points="54,-897.19 54,-933.19"/>
<text text-anchor="middle" x="103.5" y="-911.49" font-family="Times,serif" font-size="14.00">symbol: 2:6</text>
<polyline fill="none" stroke="black" points="153,-897.19 153,-933.19"/>
<text text-anchor="middle" x="190" y="-911.49" font-family="Times,serif" font-size="14.00">name: n</text>
</g>
<!-- ast_node_4 -->
<g id="node5" class="node">
<title>ast_node_4</title>
<ellipse fill="black" stroke="black" cx="217.5" cy="-971.49" rx="1.8" ry="1.8"/>
</g>
<!-- ast_node_4&#45;&gt;ast_node_3 -->
<g id="edge2" class="edge">
<title>ast_node_4&#45;&gt;ast_node_3</title>
<path fill="none" stroke="black" d="M216.03,-969.72C209.37,-966.24 181.25,-951.56 156.15,-938.45"/>
<polygon fill="black" stroke="black" points="157.83,-935.38 147.34,-933.86 154.59,-941.59 157.83,-935.38"/>
</g>
<!-- ast_node_5 -->
<g id="node6" class="node">
<title>ast_node_5</title>
<polygon fill="none" stroke="black" points="245,-897.19 245,-933.19 490,-933.19 490,-897.19 245,-897.19"/>
<text text-anchor="middle" x="277" y="-911.49" font-family="Times,serif" font-size="14.00">Literal</text>
<polyline fill="none" stroke="black" points="309,-897.19 309,-933.19"/>
<text text-anchor="middle" x="363" y="-911.49" font-family="Times,serif" font-size="14.00">symbol: 2:10</text>
<polyline fill="none" stroke="black" points="417,-897.19 417,-933.19"/>
<text text-anchor="middle" x="453.5" y="-911.49" font-family="Times,serif" font-size="14.00">value: 3</text>
</g>
<!-- ast_node_6 -->
<g id="node7" class="node">
<title>ast_node_6</title>
<ellipse fill="black" stroke="black" cx="367.5" cy="-971.49" rx="1.8" ry="1.8"/>
</g>
<!-- ast_node_6&#45;&gt;ast_node_5 -->
<g id="edge3" class="edge">
<title>ast_node_6&#45;&gt;ast_node_5</title>
<path fill="none" stroke="black" d="M367.5,-969.54C367.5,-966.34 367.5,-955.49 367.5,-944.39"/>
<polygon fill="black" stroke="black" points="371,-944.57 367.5,-934.57 364,-944.57 371,-944.57"/>
</g>
<!-- ast_node_7 -->
<g id="node8" class="node">
<title>ast_node_7</title>
<polygon fill="none" stroke="black" points="197.5,-1009.79 197.5,-1045.79 393.5,-1045.79 393.5,-1009.79 197.5,-1009.79"/>
<text text-anchor="middle" x="222.5" y="-1024.09" font-family="Times,serif" font-size="14.00">Cmp</text>
<polyline fill="none" stroke="black" points="247.5,-1009.79 247.5,-1045.79"/>
<text text-anchor="middle" x="274" y="-1024.09" font-family="Times,serif" font-size="14.00">op: lt</text>
<polyline fill="none" stroke="black" points="300.5,-1009.79 300.5,-1045.79"/>
<text text-anchor="middle" x="321" y="-1024.09" font-family="Times,serif" font-size="14.00">left</text>
<polyline fill="none" stroke="black" points="341.5,-1009.79 341.5,-1045.79"/>
<text text-anchor="middle" x="367.5" y="-1024.09" font-family="Times,serif" font-size="14.00">right</text>
</g>
<!-- ast_node_7&#45;&gt;ast_node_4 -->
<g id="edge4" class="edge">
<title>ast_node_7:left&#45;&gt;ast_node_4</title>
<path fill="none" stroke="black" d="M321.5,-1009.29C321.5,-990.22 258.58,-978.55 230.62,-974.3"/>
<polygon fill="black" stroke="black" points="231.19,-970.85 220.8,-972.92 230.22,-977.78 231.19,-970.85"/>
</g>
<!-- ast_node_7&#45;&gt;ast_node_6 -->
<g id="edge5" class="edge">
<title>ast_node_7:right&#45;&gt;ast_node_6</title>
<path fill="none" stroke="black" d="M367.5,-1009.29C367.5,-1001.16 367.5,-992.02 367.5,-984.89"/>
<polygon fill="black" stroke="black" points="371,-985.14 367.5,-975.14 364,-985.14 371,-985.14"/>
</g>
<!-- ast_node_8 -->
<g id="node9" class="node">
<title>ast_node_8</title>
<ellipse fill="black" stroke="black" cx="352.5" cy="-1100.79" rx="1.8" ry="1.8"/>
</g>
<!-- ast_node_8&#45;&gt;ast_node_7 -->
<g id="edge6" class="edge">
<title>ast_node_8&#45;&gt;ast_node_7</title>
<path fill="none" stroke="black" d="M351.69,-1098.78C347.8,-1093.93 330.52,-1072.41 316.14,-1054.5"/>
<polygon fill="black" stroke="black" points="318.91,-1052.36 309.92,-1046.75 313.45,-1056.74 318.91,-1052.36"/>
</g>
<!-- ast_node_9 -->
<g id="node10" class="node">
<title>ast_node_9</title>
<polygon fill="none" stroke="black" points="663,-586.29 663,-622.29 908,-622.29 908,-586.29 663,-586.29"/>
<text text-anchor="middle" x="695" y="-600.59" font-family="Times,serif" font-size="14.00">Literal</text>
<polyline fill="none" stroke="black" points="727,-586.29 727,-622.29"/>
<text text-anchor="middle" x="781" y="-600.59" font-family="Times,serif" font-size="14.00">symbol: 3:12</text>
<polyline fill="none" stroke="black" points="835,-586.29 835,-622.29"/>
<text text-anchor="middle" x="871.5" y="-600.59" font-family="Times,serif" font-size="14.00">value: 1</text>
</g>
<!-- ast_node_10 -->
<g id="node11" class="node">
<title>ast_node_10</title>
<ellipse fill="black" stroke="black" cx="820.5" cy="-677.29" rx="1.8" ry="1.8"/>
</g>
<!-- ast_node_10&#45;&gt;ast_node_9 -->
<g id="edge7" class="edge">
<title>ast_node_10&#45;&gt;ast_node_9</title>
<path fill="none" stroke="black" d="M820.01,-675.29C817.66,-670.52 807.39,-649.7 798.66,-631.99"/>
<polygon fill="black" stroke="black" points="802,-630.85 794.44,-623.43 795.73,-633.95 802,-630.85"/>
</g>
<!-- ast_node_11 -->
<g id="node12" class="node">
<title>ast_node_11</title>
<polygon fill="none" stroke="black" points="572.5,-824.19 572.5,-860.19 842.5,-860.19 842.5,-824.19 572.5,-824.19"/>
<text text-anchor="middle" x="634" y="-838.49" font-family="Times,serif" font-size="14.00">ExpressionList</text>
<polyline fill="none" stroke="black" points="695.5,-824.19 695.5,-860.19"/>
<text text-anchor="middle" x="749.5" y="-838.49" font-family="Times,serif" font-size="14.00">symbol: 3:12</text>
<polyline fill="none" stroke="black" points="803.5,-824.19 803.5,-860.19"/>
<text text-anchor="middle" x="823" y="-838.49" font-family="Times,serif" font-size="14.00">list</text>
</g>
<!-- vec_6239978542346980191 -->
<g id="node13" class="node">
<title>vec_6239978542346980191</title>
<polygon fill="none" stroke="black" points="794.5,-741.74 794.5,-777.74 848.5,-777.74 848.5,-741.74 794.5,-741.74"/>
<text text-anchor="middle" x="821.5" y="-756.04" font-family="Times,serif" font-size="14.00">0</text>
</g>
<!-- ast_node_11&#45;&gt;vec_6239978542346980191 -->
<g id="edge9" class="edge">
<title>ast_node_11:list&#45;&gt;vec_6239978542346980191</title>
<path fill="none" stroke="black" d="M823.5,-823.69C823.5,-812.33 823.17,-799.82 822.78,-788.97"/>
<polygon fill="black" stroke="black" points="826.28,-788.93 822.39,-779.08 819.29,-789.21 826.28,-788.93"/>
</g>
<!-- vec_6239978542346980191&#45;&gt;ast_node_10 -->
<g id="edge8" class="edge">
<title>vec_6239978542346980191:0&#45;&gt;ast_node_10</title>
<path fill="none" stroke="black" d="M821.28,-742.06C821.09,-726.46 820.82,-704.13 820.65,-690.45"/>
<polygon fill="black" stroke="black" points="824.15,-690.76 820.53,-680.81 817.15,-690.85 824.15,-690.76"/>
</g>
<!-- ast_node_12 -->
<g id="node14" class="node">
<title>ast_node_12</title>
<polygon fill="none" stroke="black" points="508.5,-897.19 508.5,-933.19 774.5,-933.19 774.5,-897.19 508.5,-897.19"/>
<text text-anchor="middle" x="541.5" y="-911.49" font-family="Times,serif" font-size="14.00">Return</text>
<polyline fill="none" stroke="black" points="574.5,-897.19 574.5,-933.19"/>
<text text-anchor="middle" x="624" y="-911.49" font-family="Times,serif" font-size="14.00">symbol: 3:5</text>
<polyline fill="none" stroke="black" points="673.5,-897.19 673.5,-933.19"/>
<text text-anchor="middle" x="724" y="-911.49" font-family="Times,serif" font-size="14.00">expressions</text>
</g>
<!-- ast_node_12&#45;&gt;ast_node_11 -->
<g id="edge10" class="edge">
<title>ast_node_12:expressions&#45;&gt;ast_node_11</title>
<path fill="none" stroke="black" d="M724.5,-896.69C724.5,-888.07 722.47,-879.03 719.82,-870.89"/>
<polygon fill="black" stroke="black" points="723.1,-869.67 716.33,-861.52 716.54,-872.11 723.1,-869.67"/>
</g>
<!-- ast_node_13 -->
<g id="node15" class="node">
<title>ast_node_13</title>
<ellipse fill="black" stroke="black" cx="641.5" cy="-971.49" rx="1.8" ry="1.8"/>
</g>
<!-- ast_node_13&#45;&gt;ast_node_12 -->
<g id="edge11" class="edge">
<title>ast_node_13&#45;&gt;ast_node_12</title>
<path fill="none" stroke="black" d="M641.5,-969.54C641.5,-966.34 641.5,-955.49 641.5,-944.39"/>
<polygon fill="black" stroke="black" points="645,-944.57 641.5,-934.57 638,-944.57 645,-944.57"/>
</g>
<!-- ast_node_14 -->
<g id="node16" class="node">
<title>ast_node_14</title>
<polygon fill="none" stroke="black" points="429,-1082.79 429,-1118.79 690,-1118.79 690,-1082.79 429,-1082.79"/>
<text text-anchor="middle" x="457" y="-1097.09" font-family="Times,serif" font-size="14.00">Block</text>
<polyline fill="none" stroke="black" points="485,-1082.79 485,-1118.79"/>
<text text-anchor="middle" x="539" y="-1097.09" font-family="Times,serif" font-size="14.00">symbol: 2:12</text>
<polyline fill="none" stroke="black" points="593,-1082.79 593,-1118.79"/>
<text text-anchor="middle" x="641.5" y="-1097.09" font-family="Times,serif" font-size="14.00">statements</text>
</g>
<!-- vec_4988723283678924448 -->
<g id="node17" class="node">
<title>vec_4988723283678924448</title>
<polygon fill="none" stroke="black" points="614.5,-1009.79 614.5,-1045.79 668.5,-1045.79 668.5,-1009.79 614.5,-1009.79"/>
<text text-anchor="middle" x="641.5" y="-1024.09" font-family="Times,serif" font-size="14.00">0</text>
</g>
<!-- ast_node_14&#45;&gt;vec_4988723283678924448 -->
<g id="edge13" class="edge">
<title>ast_node_14:statements&#45;&gt;vec_4988723283678924448</title>
<path fill="none" stroke="black" d="M641.5,-1082.29C641.5,-1074.05 641.5,-1065.1 641.5,-1056.92"/>
<polygon fill="black" stroke="black" points="645,-1057.17 641.5,-1047.17 638,-1057.17 645,-1057.17"/>
</g>
<!-- vec_4988723283678924448&#45;&gt;ast_node_13 -->
<g id="edge12" class="edge">
<title>vec_4988723283678924448:0&#45;&gt;ast_node_13</title>
<path fill="none" stroke="black" d="M641.5,-1009.98C641.5,-1001.84 641.5,-992.39 641.5,-985.02"/>
<polygon fill="black" stroke="black" points="645,-985.19 641.5,-975.19 638,-985.19 645,-985.19"/>
</g>
<!-- ast_node_15 -->
<g id="node18" class="node">
<title>ast_node_15</title>
<polygon fill="none" stroke="black" points="414,-1155.79 414,-1191.79 595,-1191.79 595,-1155.79 414,-1155.79"/>
<text text-anchor="middle" x="427.5" y="-1170.09" font-family="Times,serif" font-size="14.00">If</text>
<polyline fill="none" stroke="black" points="441,-1155.79 441,-1191.79"/>
<text text-anchor="middle" x="482.5" y="-1170.09" font-family="Times,serif" font-size="14.00">condition</text>
<polyline fill="none" stroke="black" points="524,-1155.79 524,-1191.79"/>
<text text-anchor="middle" x="559.5" y="-1170.09" font-family="Times,serif" font-size="14.00">if_block</text>
</g>
<!-- ast_node_15&#45;&gt;ast_node_8 -->
<g id="edge14" class="edge">
<title>ast_node_15:condition&#45;&gt;ast_node_8</title>
<path fill="none" stroke="black" d="M482.5,-1155.29C482.5,-1142.64 397.35,-1115.42 364.88,-1105.5"/>
<polygon fill="black" stroke="black" points="365.99,-1102.18 355.41,-1102.65 363.98,-1108.88 365.99,-1102.18"/>
</g>
<!-- ast_node_15&#45;&gt;ast_node_14 -->
<g id="edge15" class="edge">
<title>ast_node_15:if_block&#45;&gt;ast_node_14</title>
<path fill="none" stroke="black" d="M559.5,-1155.29C559.5,-1147.05 559.5,-1138.1 559.5,-1129.92"/>
<polygon fill="black" stroke="black" points="563,-1130.17 559.5,-1120.17 556,-1130.17 563,-1130.17"/>
</g>
<!-- ast_node_16 -->
<g id="node19" class="node">
<title>ast_node_16</title>
<ellipse fill="black" stroke="black" cx="555.5" cy="-1246.79" rx="1.8" ry="1.8"/>
</g>
<!-- ast_node_16&#45;&gt;ast_node_15 -->
<g id="edge16" class="edge">
<title>ast_node_16&#45;&gt;ast_node_15</title>
<path fill="none" stroke="black" d="M554.78,-1244.78C551.29,-1239.93 535.84,-1218.41 522.97,-1200.5"/>
<polygon fill="black" stroke="black" points="526.12,-1198.88 517.44,-1192.8 520.43,-1202.96 526.12,-1198.88"/>
</g>
<!-- ast_node_17 -->
<g id="node20" class="node">
<title>ast_node_17</title>
<polygon fill="none" stroke="black" points="1042,-659.29 1042,-695.29 1287,-695.29 1287,-659.29 1042,-659.29"/>
<text text-anchor="middle" x="1069" y="-673.59" font-family="Times,serif" font-size="14.00">Ident</text>
<polyline fill="none" stroke="black" points="1096,-659.29 1096,-695.29"/>
<text text-anchor="middle" x="1150" y="-673.59" font-family="Times,serif" font-size="14.00">symbol: 6:10</text>
<polyline fill="none" stroke="black" points="1204,-659.29 1204,-695.29"/>
<text text-anchor="middle" x="1245.5" y="-673.59" font-family="Times,serif" font-size="14.00">name: fib</text>
</g>
<!-- ast_node_18 -->
<g id="node21" class="node">
<title>ast_node_18</title>
<polygon fill="none" stroke="black" points="1353.5,-285.49 1353.5,-321.49 1589.5,-321.49 1589.5,-285.49 1353.5,-285.49"/>
<text text-anchor="middle" x="1380.5" y="-299.79" font-family="Times,serif" font-size="14.00">Ident</text>
<polyline fill="none" stroke="black" points="1407.5,-285.49 1407.5,-321.49"/>
<text text-anchor="middle" x="1461.5" y="-299.79" font-family="Times,serif" font-size="14.00">symbol: 6:14</text>
<polyline fill="none" stroke="black" points="1515.5,-285.49 1515.5,-321.49"/>
<text text-anchor="middle" x="1552.5" y="-299.79" font-family="Times,serif" font-size="14.00">name: n</text>
</g>
<!-- ast_node_19 -->
<g id="node22" class="node">
<title>ast_node_19</title>
<ellipse fill="black" stroke="black" cx="1528.5" cy="-385.29" rx="1.8" ry="1.8"/>
</g>
<!-- ast_node_19&#45;&gt;ast_node_18 -->
<g id="edge17" class="edge">
<title>ast_node_19&#45;&gt;ast_node_18</title>
<path fill="none" stroke="black" d="M1527.69,-383.16C1523.61,-377.44 1504.77,-351.07 1490.02,-330.42"/>
<polygon fill="black" stroke="black" points="1492.94,-328.48 1484.27,-322.38 1487.24,-332.55 1492.94,-328.48"/>
</g>
<!-- ast_node_20 -->
<g id="node23" class="node">
<title>ast_node_20</title>
<polygon fill="none" stroke="black" points="1512,-121.9 1512,-157.9 1757,-157.9 1757,-121.9 1512,-121.9"/>
<text text-anchor="middle" x="1544" y="-136.2" font-family="Times,serif" font-size="14.00">Literal</text>
<polyline fill="none" stroke="black" points="1576,-121.9 1576,-157.9"/>
<text text-anchor="middle" x="1630" y="-136.2" font-family="Times,serif" font-size="14.00">symbol: 6:18</text>
<polyline fill="none" stroke="black" points="1684,-121.9 1684,-157.9"/>
<text text-anchor="middle" x="1720.5" y="-136.2" font-family="Times,serif" font-size="14.00">value: 1</text>
</g>
<!-- ast_node_21 -->
<g id="node24" class="node">
<title>ast_node_21</title>
<ellipse fill="black" stroke="black" cx="1634.5" cy="-221.7" rx="1.8" ry="1.8"/>
</g>
<!-- ast_node_21&#45;&gt;ast_node_20 -->
<g id="edge18" class="edge">
<title>ast_node_21&#45;&gt;ast_node_20</title>
<path fill="none" stroke="black" d="M1634.5,-219.57C1634.5,-214.02 1634.5,-189.13 1634.5,-168.81"/>
<polygon fill="black" stroke="black" points="1638,-169.06 1634.5,-159.06 1631,-169.06 1638,-169.06"/>
</g>
<!-- ast_node_22 -->
<g id="node25" class="node">
<title>ast_node_22</title>
<polygon fill="none" stroke="black" points="1486.5,-440.29 1486.5,-476.29 1626.5,-476.29 1626.5,-440.29 1486.5,-440.29"/>
<text text-anchor="middle" x="1511" y="-454.59" font-family="Times,serif" font-size="14.00">Sum</text>
<polyline fill="none" stroke="black" points="1535.5,-440.29 1535.5,-476.29"/>
<text text-anchor="middle" x="1558.5" y="-454.59" font-family="Times,serif" font-size="14.00">first</text>
<polyline fill="none" stroke="black" points="1581.5,-440.29 1581.5,-476.29"/>
<text text-anchor="middle" x="1604" y="-454.59" font-family="Times,serif" font-size="14.00">rest</text>
</g>
<!-- ast_node_22&#45;&gt;ast_node_19 -->
<g id="edge19" class="edge">
<title>ast_node_22:first&#45;&gt;ast_node_19</title>
<path fill="none" stroke="black" d="M1558.5,-439.79C1558.5,-422.23 1546.05,-405.09 1537.19,-395.12"/>
<polygon fill="black" stroke="black" points="1539.78,-392.76 1530.3,-388.05 1534.77,-397.65 1539.78,-392.76"/>
</g>
<!-- vec_7327532576864907798 -->
<g id="node26" class="node">
<title>vec_7327532576864907798</title>
<polygon fill="none" stroke="black" points="1577.5,-367.29 1577.5,-403.29 1631.5,-403.29 1631.5,-367.29 1577.5,-367.29"/>
<text text-anchor="middle" x="1604.5" y="-381.59" font-family="Times,serif" font-size="14.00">0</text>
</g>
<!-- ast_node_22&#45;&gt;vec_7327532576864907798 -->
<g id="edge22" class="edge">
<title>ast_node_22:rest&#45;&gt;vec_7327532576864907798</title>
<path fill="none" stroke="black" d="M1604.5,-439.79C1604.5,-431.55 1604.5,-422.6 1604.5,-414.42"/>
<polygon fill="black" stroke="black" points="1608,-414.67 1604.5,-404.67 1601,-414.67 1608,-414.67"/>
</g>
<!-- ast_sum_17778012151635330486 -->
<g id="node27" class="node">
<title>ast_sum_17778012151635330486</title>
<ellipse fill="none" stroke="black" cx="1634.5" cy="-303.49" rx="27.1" ry="27.1"/>
<text text-anchor="middle" x="1634.5" y="-299.79" font-family="Times,serif" font-size="14.00">sub</text>
</g>
<!-- vec_7327532576864907798&#45;&gt;ast_sum_17778012151635330486 -->
<g id="edge21" class="edge">
<title>vec_7327532576864907798:0&#45;&gt;ast_sum_17778012151635330486</title>
<path fill="none" stroke="black" d="M1611.16,-367.36C1614.14,-359.34 1617.76,-349.59 1621.25,-340.18"/>
<polygon fill="black" stroke="black" points="1624.52,-341.43 1624.72,-330.84 1617.96,-339 1624.52,-341.43"/>
</g>
<!-- ast_sum_17778012151635330486&#45;&gt;ast_node_21 -->
<g id="edge20" class="edge">
<title>ast_sum_17778012151635330486&#45;&gt;ast_node_21</title>
<path fill="none" stroke="black" d="M1634.5,-275.92C1634.5,-261.95 1634.5,-245.52 1634.5,-234.65"/>
<polygon fill="black" stroke="black" points="1638,-234.97 1634.5,-224.97 1631,-234.97 1638,-234.97"/>
</g>
<!-- ast_node_23 -->
<g id="node28" class="node">
<title>ast_node_23</title>
<ellipse fill="black" stroke="black" cx="1556.5" cy="-531.29" rx="1.8" ry="1.8"/>
</g>
<!-- ast_node_23&#45;&gt;ast_node_22 -->
<g id="edge23" class="edge">
<title>ast_node_23&#45;&gt;ast_node_22</title>
<path fill="none" stroke="black" d="M1556.5,-529.06C1556.5,-524.03 1556.5,-504.53 1556.5,-487.42"/>
<polygon fill="black" stroke="black" points="1560,-487.67 1556.5,-477.67 1553,-487.67 1560,-487.67"/>
</g>
<!-- ast_node_24 -->
<g id="node29" class="node">
<title>ast_node_24</title>
<polygon fill="none" stroke="black" points="1305.5,-659.29 1305.5,-695.29 1575.5,-695.29 1575.5,-659.29 1305.5,-659.29"/>
<text text-anchor="middle" x="1367" y="-673.59" font-family="Times,serif" font-size="14.00">ExpressionList</text>
<polyline fill="none" stroke="black" points="1428.5,-659.29 1428.5,-695.29"/>
<text text-anchor="middle" x="1482.5" y="-673.59" font-family="Times,serif" font-size="14.00">symbol: 6:14</text>
<polyline fill="none" stroke="black" points="1536.5,-659.29 1536.5,-695.29"/>
<text text-anchor="middle" x="1556" y="-673.59" font-family="Times,serif" font-size="14.00">list</text>
</g>
<!-- vec_715039052867723359 -->
<g id="node30" class="node">
<title>vec_715039052867723359</title>
<polygon fill="none" stroke="black" points="1529.5,-586.29 1529.5,-622.29 1583.5,-622.29 1583.5,-586.29 1529.5,-586.29"/>
<text text-anchor="middle" x="1556.5" y="-600.59" font-family="Times,serif" font-size="14.00">0</text>
</g>
<!-- ast_node_24&#45;&gt;vec_715039052867723359 -->
<g id="edge25" class="edge">
<title>ast_node_24:list&#45;&gt;vec_715039052867723359</title>
<path fill="none" stroke="black" d="M1556.5,-658.79C1556.5,-650.55 1556.5,-641.6 1556.5,-633.42"/>
<polygon fill="black" stroke="black" points="1560,-633.67 1556.5,-623.67 1553,-633.67 1560,-633.67"/>
</g>
<!-- vec_715039052867723359&#45;&gt;ast_node_23 -->
<g id="edge24" class="edge">
<title>vec_715039052867723359:0&#45;&gt;ast_node_23</title>
<path fill="none" stroke="black" d="M1556.5,-586.49C1556.5,-573.36 1556.5,-555.84 1556.5,-544.32"/>
<polygon fill="black" stroke="black" points="1560,-544.63 1556.5,-534.63 1553,-544.63 1560,-544.63"/>
</g>
<!-- ast_node_25 -->
<g id="node31" class="node">
<title>ast_node_25</title>
<polygon fill="none" stroke="black" points="1094.5,-741.74 1094.5,-777.74 1292.5,-777.74 1292.5,-741.74 1094.5,-741.74"/>
<text text-anchor="middle" x="1116.5" y="-756.04" font-family="Times,serif" font-size="14.00">Call</text>
<polyline fill="none" stroke="black" points="1138.5,-741.74 1138.5,-777.74"/>
<text text-anchor="middle" x="1165" y="-756.04" font-family="Times,serif" font-size="14.00">ident</text>
<polyline fill="none" stroke="black" points="1191.5,-741.74 1191.5,-777.74"/>
<text text-anchor="middle" x="1242" y="-756.04" font-family="Times,serif" font-size="14.00">expressions</text>
</g>
<!-- ast_node_25&#45;&gt;ast_node_17 -->
<g id="edge26" class="edge">
<title>ast_node_25:ident&#45;&gt;ast_node_17</title>
<path fill="none" stroke="black" d="M1164.5,-740.74C1164.5,-729.55 1164.5,-717.24 1164.5,-706.53"/>
<polygon fill="black" stroke="black" points="1168,-706.77 1164.5,-696.77 1161,-706.77 1168,-706.77"/>
</g>
<!-- ast_node_25&#45;&gt;ast_node_24 -->
<g id="edge27" class="edge">
<title>ast_node_25:expressions&#45;&gt;ast_node_24</title>
<path fill="none" stroke="black" d="M1293.5,-759.74C1341.15,-759.74 1387.83,-726.59 1415.39,-702.58"/>
<polygon fill="black" stroke="black" points="1417.42,-705.47 1422.51,-696.18 1412.74,-700.26 1417.42,-705.47"/>
</g>
<!-- ast_node_26 -->
<g id="node32" class="node">
<title>ast_node_26</title>
<ellipse fill="black" stroke="black" cx="975.5" cy="-842.19" rx="1.8" ry="1.8"/>
</g>
<!-- ast_node_26&#45;&gt;ast_node_25 -->
<g id="edge28" class="edge">
<title>ast_node_26&#45;&gt;ast_node_25</title>
<path fill="none" stroke="black" d="M975.89,-840.05C977.01,-836.94 980.57,-828.22 986.5,-823.69 1006.02,-808.77 1059.64,-792.66 1107.41,-780.47"/>
<polygon fill="black" stroke="black" points="1108.14,-783.9 1116.98,-778.07 1106.43,-777.11 1108.14,-783.9"/>
</g>
<!-- ast_node_27 -->
<g id="node33" class="node">
<title>ast_node_27</title>
<polygon fill="none" stroke="black" points="705,-513.29 705,-549.29 950,-549.29 950,-513.29 705,-513.29"/>
<text text-anchor="middle" x="732" y="-527.59" font-family="Times,serif" font-size="14.00">Ident</text>
<polyline fill="none" stroke="black" points="759,-513.29 759,-549.29"/>
<text text-anchor="middle" x="813" y="-527.59" font-family="Times,serif" font-size="14.00">symbol: 6:23</text>
<polyline fill="none" stroke="black" points="867,-513.29 867,-549.29"/>
<text text-anchor="middle" x="908.5" y="-527.59" font-family="Times,serif" font-size="14.00">name: fib</text>
</g>
<!-- ast_node_28 -->
<g id="node34" class="node">
<title>ast_node_28</title>
<polygon fill="none" stroke="black" points="1030.5,-121.9 1030.5,-157.9 1266.5,-157.9 1266.5,-121.9 1030.5,-121.9"/>
<text text-anchor="middle" x="1057.5" y="-136.2" font-family="Times,serif" font-size="14.00">Ident</text>
<polyline fill="none" stroke="black" points="1084.5,-121.9 1084.5,-157.9"/>
<text text-anchor="middle" x="1138.5" y="-136.2" font-family="Times,serif" font-size="14.00">symbol: 6:27</text>
<polyline fill="none" stroke="black" points="1192.5,-121.9 1192.5,-157.9"/>
<text text-anchor="middle" x="1229.5" y="-136.2" font-family="Times,serif" font-size="14.00">name: n</text>
</g>
<!-- ast_node_29 -->
<g id="node35" class="node">
<title>ast_node_29</title>
<ellipse fill="black" stroke="black" cx="1163.5" cy="-221.7" rx="1.8" ry="1.8"/>
</g>
<!-- ast_node_29&#45;&gt;ast_node_28 -->
<g id="edge29" class="edge">
<title>ast_node_29&#45;&gt;ast_node_28</title>
<path fill="none" stroke="black" d="M1163.29,-219.57C1162.25,-214.02 1157.57,-189.13 1153.75,-168.81"/>
<polygon fill="black" stroke="black" points="1157.2,-168.22 1151.91,-159.04 1150.32,-169.51 1157.2,-168.22"/>
</g>
<!-- ast_node_30 -->
<g id="node36" class="node">
<title>ast_node_30</title>
<polygon fill="none" stroke="black" points="1189,-0.5 1189,-36.5 1434,-36.5 1434,-0.5 1189,-0.5"/>
<text text-anchor="middle" x="1221" y="-14.8" font-family="Times,serif" font-size="14.00">Literal</text>
<polyline fill="none" stroke="black" points="1253,-0.5 1253,-36.5"/>
<text text-anchor="middle" x="1307" y="-14.8" font-family="Times,serif" font-size="14.00">symbol: 6:31</text>
<polyline fill="none" stroke="black" points="1361,-0.5 1361,-36.5"/>
<text text-anchor="middle" x="1397.5" y="-14.8" font-family="Times,serif" font-size="14.00">value: 2</text>
</g>
<!-- ast_node_31 -->
<g id="node37" class="node">
<title>ast_node_31</title>
<ellipse fill="black" stroke="black" cx="1311.5" cy="-74.8" rx="1.8" ry="1.8"/>
</g>
<!-- ast_node_31&#45;&gt;ast_node_30 -->
<g id="edge30" class="edge">
<title>ast_node_31&#45;&gt;ast_node_30</title>
<path fill="none" stroke="black" d="M1311.5,-72.86C1311.5,-69.66 1311.5,-58.8 1311.5,-47.71"/>
<polygon fill="black" stroke="black" points="1315,-47.88 1311.5,-37.88 1308,-47.88 1315,-47.88"/>
</g>
<!-- ast_node_32 -->
<g id="node38" class="node">
<title>ast_node_32</title>
<polygon fill="none" stroke="black" points="1149.5,-285.49 1149.5,-321.49 1289.5,-321.49 1289.5,-285.49 1149.5,-285.49"/>
<text text-anchor="middle" x="1174" y="-299.79" font-family="Times,serif" font-size="14.00">Sum</text>
<polyline fill="none" stroke="black" points="1198.5,-285.49 1198.5,-321.49"/>
<text text-anchor="middle" x="1221.5" y="-299.79" font-family="Times,serif" font-size="14.00">first</text>
<polyline fill="none" stroke="black" points="1244.5,-285.49 1244.5,-321.49"/>
<text text-anchor="middle" x="1267" y="-299.79" font-family="Times,serif" font-size="14.00">rest</text>
</g>
<!-- ast_node_32&#45;&gt;ast_node_29 -->
<g id="edge31" class="edge">
<title>ast_node_32:first&#45;&gt;ast_node_29</title>
<path fill="none" stroke="black" d="M1221.5,-284.49C1221.5,-257.56 1191.84,-237.54 1174.94,-228.33"/>
<polygon fill="black" stroke="black" points="1176.8,-225.34 1166.29,-224 1173.67,-231.6 1176.8,-225.34"/>
</g>
<!-- vec_16049108317697669766 -->
<g id="node39" class="node">
<title>vec_16049108317697669766</title>
<polygon fill="none" stroke="black" points="1255.5,-203.7 1255.5,-239.7 1309.5,-239.7 1309.5,-203.7 1255.5,-203.7"/>
<text text-anchor="middle" x="1282.5" y="-218" font-family="Times,serif" font-size="14.00">0</text>
</g>
<!-- ast_node_32&#45;&gt;vec_16049108317697669766 -->
<g id="edge34" class="edge">
<title>ast_node_32:rest&#45;&gt;vec_16049108317697669766</title>
<path fill="none" stroke="black" d="M1267.5,-284.49C1267.5,-273.06 1269.95,-260.77 1272.88,-250.18"/>
<polygon fill="black" stroke="black" points="1276.13,-251.51 1275.7,-240.93 1269.43,-249.47 1276.13,-251.51"/>
</g>
<!-- ast_sum_11875828834189669668 -->
<g id="node40" class="node">
<title>ast_sum_11875828834189669668</title>
<ellipse fill="none" stroke="black" cx="1311.5" cy="-139.9" rx="27.1" ry="27.1"/>
<text text-anchor="middle" x="1311.5" y="-136.2" font-family="Times,serif" font-size="14.00">sub</text>
</g>
<!-- vec_16049108317697669766&#45;&gt;ast_sum_11875828834189669668 -->
<g id="edge33" class="edge">
<title>vec_16049108317697669766:0&#45;&gt;ast_sum_11875828834189669668</title>
<path fill="none" stroke="black" d="M1288.94,-203.76C1291.81,-195.74 1295.31,-185.99 1298.69,-176.59"/>
<polygon fill="black" stroke="black" points="1301.96,-177.85 1302.04,-167.25 1295.37,-175.48 1301.96,-177.85"/>
</g>
<!-- ast_sum_11875828834189669668&#45;&gt;ast_node_31 -->
<g id="edge32" class="edge">
<title>ast_sum_11875828834189669668&#45;&gt;ast_node_31</title>
<path fill="none" stroke="black" d="M1311.5,-112.5C1311.5,-104.15 1311.5,-95.29 1311.5,-88.37"/>
<polygon fill="black" stroke="black" points="1315,-88.41 1311.5,-78.41 1308,-88.41 1315,-88.41"/>
</g>
<!-- ast_node_33 -->
<g id="node41" class="node">
<title>ast_node_33</title>
<ellipse fill="black" stroke="black" cx="1219.5" cy="-385.29" rx="1.8" ry="1.8"/>
</g>
<!-- ast_node_33&#45;&gt;ast_node_32 -->
<g id="edge35" class="edge">
<title>ast_node_33&#45;&gt;ast_node_32</title>
<path fill="none" stroke="black" d="M1219.5,-383.16C1219.5,-377.62 1219.5,-352.72 1219.5,-332.4"/>
<polygon fill="black" stroke="black" points="1223,-332.66 1219.5,-322.66 1216,-332.66 1223,-332.66"/>
</g>
<!-- ast_node_34 -->
<g id="node42" class="node">
<title>ast_node_34</title>
<polygon fill="none" stroke="black" points="968.5,-513.29 968.5,-549.29 1238.5,-549.29 1238.5,-513.29 968.5,-513.29"/>
<text text-anchor="middle" x="1030" y="-527.59" font-family="Times,serif" font-size="14.00">ExpressionList</text>
<polyline fill="none" stroke="black" points="1091.5,-513.29 1091.5,-549.29"/>
<text text-anchor="middle" x="1145.5" y="-527.59" font-family="Times,serif" font-size="14.00">symbol: 6:27</text>
<polyline fill="none" stroke="black" points="1199.5,-513.29 1199.5,-549.29"/>
<text text-anchor="middle" x="1219" y="-527.59" font-family="Times,serif" font-size="14.00">list</text>
</g>
<!-- vec_6483416627284290920 -->
<g id="node43" class="node">
<title>vec_6483416627284290920</title>
<polygon fill="none" stroke="black" points="1192.5,-440.29 1192.5,-476.29 1246.5,-476.29 1246.5,-440.29 1192.5,-440.29"/>
<text text-anchor="middle" x="1219.5" y="-454.59" font-family="Times,serif" font-size="14.00">0</text>
</g>
<!-- ast_node_34&#45;&gt;vec_6483416627284290920 -->
<g id="edge37" class="edge">
<title>ast_node_34:list&#45;&gt;vec_6483416627284290920</title>
<path fill="none" stroke="black" d="M1219.5,-512.79C1219.5,-504.55 1219.5,-495.6 1219.5,-487.42"/>
<polygon fill="black" stroke="black" points="1223,-487.67 1219.5,-477.67 1216,-487.67 1223,-487.67"/>
</g>
<!-- vec_6483416627284290920&#45;&gt;ast_node_33 -->
<g id="edge36" class="edge">
<title>vec_6483416627284290920:0&#45;&gt;ast_node_33</title>
<path fill="none" stroke="black" d="M1219.5,-440.49C1219.5,-427.36 1219.5,-409.84 1219.5,-398.32"/>
<polygon fill="black" stroke="black" points="1223,-398.63 1219.5,-388.63 1216,-398.63 1223,-398.63"/>
</g>
<!-- ast_node_35 -->
<g id="node44" class="node">
<title>ast_node_35</title>
<polygon fill="none" stroke="black" points="926.5,-586.29 926.5,-622.29 1124.5,-622.29 1124.5,-586.29 926.5,-586.29"/>
<text text-anchor="middle" x="948.5" y="-600.59" font-family="Times,serif" font-size="14.00">Call</text>
<polyline fill="none" stroke="black" points="970.5,-586.29 970.5,-622.29"/>
<text text-anchor="middle" x="997" y="-600.59" font-family="Times,serif" font-size="14.00">ident</text>
<polyline fill="none" stroke="black" points="1023.5,-586.29 1023.5,-622.29"/>
<text text-anchor="middle" x="1074" y="-600.59" font-family="Times,serif" font-size="14.00">expressions</text>
</g>
<!-- ast_node_35&#45;&gt;ast_node_27 -->
<g id="edge38" class="edge">
<title>ast_node_35:ident&#45;&gt;ast_node_27</title>
<path fill="none" stroke="black" d="M996.5,-585.79C996.5,-571.33 973.73,-560.28 944.91,-552.08"/>
<polygon fill="black" stroke="black" points="946.08,-548.77 935.51,-549.58 944.28,-555.53 946.08,-548.77"/>
</g>
<!-- ast_node_35&#45;&gt;ast_node_34 -->
<g id="edge39" class="edge">
<title>ast_node_35:expressions&#45;&gt;ast_node_34</title>
<path fill="none" stroke="black" d="M1074.5,-585.79C1074.5,-576.18 1078.16,-566.64 1082.89,-558.33"/>
<polygon fill="black" stroke="black" points="1085.68,-560.46 1088.18,-550.17 1079.8,-556.66 1085.68,-560.46"/>
</g>
<!-- ast_node_36 -->
<g id="node45" class="node">
<title>ast_node_36</title>
<ellipse fill="black" stroke="black" cx="1022.5" cy="-677.29" rx="1.8" ry="1.8"/>
</g>
<!-- ast_node_36&#45;&gt;ast_node_35 -->
<g id="edge40" class="edge">
<title>ast_node_36&#45;&gt;ast_node_35</title>
<path fill="none" stroke="black" d="M1022.55,-675.06C1022.76,-670.03 1023.59,-650.53 1024.31,-633.42"/>
<polygon fill="black" stroke="black" points="1027.8,-633.81 1024.72,-623.67 1020.8,-633.52 1027.8,-633.81"/>
</g>
<!-- ast_node_37 -->
<g id="node46" class="node">
<title>ast_node_37</title>
<polygon fill="none" stroke="black" points="903.5,-897.19 903.5,-933.19 1043.5,-933.19 1043.5,-897.19 903.5,-897.19"/>
<text text-anchor="middle" x="928" y="-911.49" font-family="Times,serif" font-size="14.00">Sum</text>
<polyline fill="none" stroke="black" points="952.5,-897.19 952.5,-933.19"/>
<text text-anchor="middle" x="975.5" y="-911.49" font-family="Times,serif" font-size="14.00">first</text>
<polyline fill="none" stroke="black" points="998.5,-897.19 998.5,-933.19"/>
<text text-anchor="middle" x="1021" y="-911.49" font-family="Times,serif" font-size="14.00">rest</text>
</g>
<!-- ast_node_37&#45;&gt;ast_node_26 -->
<g id="edge41" class="edge">
<title>ast_node_37:first&#45;&gt;ast_node_26</title>
<path fill="none" stroke="black" d="M975.5,-896.69C975.5,-882.38 975.5,-865.91 975.5,-855.07"/>
<polygon fill="black" stroke="black" points="979,-855.45 975.5,-845.45 972,-855.45 979,-855.45"/>
</g>
<!-- vec_2604377706115709716 -->
<g id="node47" class="node">
<title>vec_2604377706115709716</title>
<polygon fill="none" stroke="black" points="995.5,-824.19 995.5,-860.19 1049.5,-860.19 1049.5,-824.19 995.5,-824.19"/>
<text text-anchor="middle" x="1022.5" y="-838.49" font-family="Times,serif" font-size="14.00">0</text>
</g>
<!-- ast_node_37&#45;&gt;vec_2604377706115709716 -->
<g id="edge44" class="edge">
<title>ast_node_37:rest&#45;&gt;vec_2604377706115709716</title>
<path fill="none" stroke="black" d="M1021.5,-896.69C1021.5,-888.45 1021.62,-879.5 1021.78,-871.31"/>
<polygon fill="black" stroke="black" points="1025.27,-871.64 1021.99,-861.56 1018.27,-871.48 1025.27,-871.64"/>
</g>
<!-- ast_sum_1053313629224054703 -->
<g id="node48" class="node">
<title>ast_sum_1053313629224054703</title>
<ellipse fill="none" stroke="black" cx="1022.5" cy="-759.74" rx="27.9" ry="27.9"/>
<text text-anchor="middle" x="1022.5" y="-756.04" font-family="Times,serif" font-size="14.00">add</text>
</g>
<!-- vec_2604377706115709716&#45;&gt;ast_sum_1053313629224054703 -->
<g id="edge43" class="edge">
<title>vec_2604377706115709716:0&#45;&gt;ast_sum_1053313629224054703</title>
<path fill="none" stroke="black" d="M1022.5,-824.51C1022.5,-817.1 1022.5,-808.16 1022.5,-799.35"/>
<polygon fill="black" stroke="black" points="1026,-799.5 1022.5,-789.5 1019,-799.5 1026,-799.5"/>
</g>
<!-- ast_sum_1053313629224054703&#45;&gt;ast_node_36 -->
<g id="edge42" class="edge">
<title>ast_sum_1053313629224054703&#45;&gt;ast_node_36</title>
<path fill="none" stroke="black" d="M1022.5,-731.5C1022.5,-717.46 1022.5,-701.04 1022.5,-690.2"/>
<polygon fill="black" stroke="black" points="1026,-690.56 1022.5,-680.56 1019,-690.56 1026,-690.56"/>
</g>
<!-- ast_node_38 -->
<g id="node49" class="node">
<title>ast_node_38</title>
<ellipse fill="black" stroke="black" cx="964.5" cy="-971.49" rx="1.8" ry="1.8"/>
</g>
<!-- ast_node_38&#45;&gt;ast_node_37 -->
<g id="edge45" class="edge">
<title>ast_node_38&#45;&gt;ast_node_37</title>
<path fill="none" stroke="black" d="M964.66,-969.54C965.19,-966.34 966.99,-955.49 968.83,-944.39"/>
<polygon fill="black" stroke="black" points="972.27,-944.99 970.46,-934.55 965.37,-943.84 972.27,-944.99"/>
</g>
<!-- ast_node_39 -->
<g id="node50" class="node">
<title>ast_node_39</title>
<polygon fill="none" stroke="black" points="712.5,-1082.79 712.5,-1118.79 982.5,-1118.79 982.5,-1082.79 712.5,-1082.79"/>
<text text-anchor="middle" x="774" y="-1097.09" font-family="Times,serif" font-size="14.00">ExpressionList</text>
<polyline fill="none" stroke="black" points="835.5,-1082.79 835.5,-1118.79"/>
<text text-anchor="middle" x="889.5" y="-1097.09" font-family="Times,serif" font-size="14.00">symbol: 6:10</text>
<polyline fill="none" stroke="black" points="943.5,-1082.79 943.5,-1118.79"/>
<text text-anchor="middle" x="963" y="-1097.09" font-family="Times,serif" font-size="14.00">list</text>
</g>
<!-- vec_7351195479953500246 -->
<g id="node51" class="node">
<title>vec_7351195479953500246</title>
<polygon fill="none" stroke="black" points="937.5,-1009.79 937.5,-1045.79 991.5,-1045.79 991.5,-1009.79 937.5,-1009.79"/>
<text text-anchor="middle" x="964.5" y="-1024.09" font-family="Times,serif" font-size="14.00">0</text>
</g>
<!-- ast_node_39&#45;&gt;vec_7351195479953500246 -->
<g id="edge47" class="edge">
<title>ast_node_39:list&#45;&gt;vec_7351195479953500246</title>
<path fill="none" stroke="black" d="M963.5,-1082.29C963.5,-1074.05 963.62,-1065.1 963.78,-1056.91"/>
<polygon fill="black" stroke="black" points="967.27,-1057.24 963.99,-1047.16 960.27,-1057.08 967.27,-1057.24"/>
</g>
<!-- vec_7351195479953500246&#45;&gt;ast_node_38 -->
<g id="edge46" class="edge">
<title>vec_7351195479953500246:0&#45;&gt;ast_node_38</title>
<path fill="none" stroke="black" d="M964.5,-1009.98C964.5,-1001.84 964.5,-992.39 964.5,-985.02"/>
<polygon fill="black" stroke="black" points="968,-985.19 964.5,-975.19 961,-985.19 968,-985.19"/>
</g>
<!-- ast_node_40 -->
<g id="node52" class="node">
<title>ast_node_40</title>
<polygon fill="none" stroke="black" points="620.5,-1155.79 620.5,-1191.79 886.5,-1191.79 886.5,-1155.79 620.5,-1155.79"/>
<text text-anchor="middle" x="653.5" y="-1170.09" font-family="Times,serif" font-size="14.00">Return</text>
<polyline fill="none" stroke="black" points="686.5,-1155.79 686.5,-1191.79"/>
<text text-anchor="middle" x="736" y="-1170.09" font-family="Times,serif" font-size="14.00">symbol: 6:3</text>
<polyline fill="none" stroke="black" points="785.5,-1155.79 785.5,-1191.79"/>
<text text-anchor="middle" x="836" y="-1170.09" font-family="Times,serif" font-size="14.00">expressions</text>
</g>
<!-- ast_node_40&#45;&gt;ast_node_39 -->
<g id="edge48" class="edge">
<title>ast_node_40:expressions&#45;&gt;ast_node_39</title>
<path fill="none" stroke="black" d="M836.5,-1155.29C836.5,-1146.78 837.85,-1137.66 839.61,-1129.41"/>
<polygon fill="black" stroke="black" points="842.95,-1130.49 841.9,-1119.94 836.14,-1128.84 842.95,-1130.49"/>
</g>
<!-- ast_node_41 -->
<g id="node53" class="node">
<title>ast_node_41</title>
<ellipse fill="black" stroke="black" cx="702.5" cy="-1246.79" rx="1.8" ry="1.8"/>
</g>
<!-- ast_node_41&#45;&gt;ast_node_40 -->
<g id="edge49" class="edge">
<title>ast_node_41&#45;&gt;ast_node_40</title>
<path fill="none" stroke="black" d="M703.22,-1244.78C706.71,-1239.93 722.16,-1218.41 735.03,-1200.5"/>
<polygon fill="black" stroke="black" points="737.57,-1202.96 740.56,-1192.8 731.88,-1198.88 737.57,-1202.96"/>
</g>
<!-- ast_node_42 -->
<g id="node54" class="node">
<title>ast_node_42</title>
<polygon fill="none" stroke="black" points="369,-1374.79 369,-1410.79 630,-1410.79 630,-1374.79 369,-1374.79"/>
<text text-anchor="middle" x="397" y="-1389.09" font-family="Times,serif" font-size="14.00">Block</text>
<polyline fill="none" stroke="black" points="425,-1374.79 425,-1410.79"/>
<text text-anchor="middle" x="479" y="-1389.09" font-family="Times,serif" font-size="14.00">symbol: 1:21</text>
<polyline fill="none" stroke="black" points="533,-1374.79 533,-1410.79"/>
<text text-anchor="middle" x="581.5" y="-1389.09" font-family="Times,serif" font-size="14.00">statements</text>
</g>
<!-- vec_17333513754845909178 -->
<g id="node55" class="node">
<title>vec_17333513754845909178</title>
<polygon fill="none" stroke="black" points="554.5,-1301.79 554.5,-1337.79 608.5,-1337.79 608.5,-1301.79 554.5,-1301.79"/>
<text text-anchor="middle" x="568" y="-1316.09" font-family="Times,serif" font-size="14.00">0</text>
<polyline fill="none" stroke="black" points="581.5,-1301.79 581.5,-1337.79"/>
<text text-anchor="middle" x="595" y="-1316.09" font-family="Times,serif" font-size="14.00">1</text>
</g>
<!-- ast_node_42&#45;&gt;vec_17333513754845909178 -->
<g id="edge52" class="edge">
<title>ast_node_42:statements&#45;&gt;vec_17333513754845909178</title>
<path fill="none" stroke="black" d="M581.5,-1374.29C581.5,-1366.05 581.5,-1357.1 581.5,-1348.92"/>
<polygon fill="black" stroke="black" points="585,-1349.17 581.5,-1339.17 578,-1349.17 585,-1349.17"/>
</g>
<!-- vec_17333513754845909178&#45;&gt;ast_node_16 -->
<g id="edge50" class="edge">
<title>vec_17333513754845909178:0&#45;&gt;ast_node_16</title>
<path fill="none" stroke="black" d="M567.5,-1301.29C567.5,-1286.45 563.05,-1269.84 559.57,-1259.13"/>
<polygon fill="black" stroke="black" points="562.96,-1258.2 556.3,-1249.95 556.36,-1260.55 562.96,-1258.2"/>
</g>
<!-- vec_17333513754845909178&#45;&gt;ast_node_41 -->
<g id="edge51" class="edge">
<title>vec_17333513754845909178:1&#45;&gt;ast_node_41</title>
<path fill="none" stroke="black" d="M609.5,-1319.79C649.18,-1319.79 682.2,-1278.31 695.81,-1258.31"/>
<polygon fill="black" stroke="black" points="698.64,-1260.39 701.09,-1250.08 692.75,-1256.61 698.64,-1260.39"/>
</g>
<!-- ast_node_43 -->
<g id="node56" class="node">
<title>ast_node_43</title>
<polygon fill="none" stroke="black" points="67.5,-1447.79 67.5,-1483.79 533.5,-1483.79 533.5,-1447.79 67.5,-1447.79"/>
<text text-anchor="middle" x="107.5" y="-1462.09" font-family="Times,serif" font-size="14.00">Function</text>
<polyline fill="none" stroke="black" points="147.5,-1447.79 147.5,-1483.79"/>
<text text-anchor="middle" x="197" y="-1462.09" font-family="Times,serif" font-size="14.00">symbol: 1:1</text>
<polyline fill="none" stroke="black" points="246.5,-1447.79 246.5,-1483.79"/>
<text text-anchor="middle" x="273" y="-1462.09" font-family="Times,serif" font-size="14.00">ident</text>
<polyline fill="none" stroke="black" points="299.5,-1447.79 299.5,-1483.79"/>
<text text-anchor="middle" x="323.5" y="-1462.09" font-family="Times,serif" font-size="14.00">args</text>
<polyline fill="none" stroke="black" points="347.5,-1447.79 347.5,-1483.79"/>
<text text-anchor="middle" x="374.5" y="-1462.09" font-family="Times,serif" font-size="14.00">block</text>
<polyline fill="none" stroke="black" points="401.5,-1447.79 401.5,-1483.79"/>
<text text-anchor="middle" x="467.5" y="-1462.09" font-family="Times,serif" font-size="14.00">return_type: i32</text>
</g>
<!-- ast_node_43&#45;&gt;ast_node_0 -->
<g id="edge53" class="edge">
<title>ast_node_43:ident&#45;&gt;ast_node_0</title>
<path fill="none" stroke="black" d="M272.5,-1447.29C272.5,-1434.25 266.25,-1424.39 256.7,-1416.93"/>
<polygon fill="black" stroke="black" points="258.66,-1414.03 248.36,-1411.55 254.86,-1419.91 258.66,-1414.03"/>
</g>
<!-- ast_node_43&#45;&gt;ast_node_42 -->
<g id="edge56" class="edge">
<title>ast_node_43:block&#45;&gt;ast_node_42</title>
<path fill="none" stroke="black" d="M374.5,-1447.29C374.5,-1434.41 380.18,-1424.59 389.11,-1417.11"/>
<polygon fill="black" stroke="black" points="391.07,-1420.01 397.35,-1411.48 387.12,-1414.23 391.07,-1420.01"/>
</g>
<!-- vec_18088007599891946824 -->
<g id="node57" class="node">
<title>vec_18088007599891946824</title>
<polygon fill="none" stroke="black" points="296.5,-1374.79 296.5,-1410.79 350.5,-1410.79 350.5,-1374.79 296.5,-1374.79"/>
<text text-anchor="middle" x="323.5" y="-1389.09" font-family="Times,serif" font-size="14.00">0</text>
</g>
<!-- ast_node_43&#45;&gt;vec_18088007599891946824 -->
<g id="edge55" class="edge">
<title>ast_node_43:args&#45;&gt;vec_18088007599891946824</title>
<path fill="none" stroke="black" d="M323.5,-1447.29C323.5,-1439.05 323.5,-1430.1 323.5,-1421.92"/>
<polygon fill="black" stroke="black" points="327,-1422.17 323.5,-1412.17 320,-1422.17 327,-1422.17"/>
</g>
<!-- vec_18088007599891946824&#45;&gt;ast_node_2 -->
<g id="edge54" class="edge">
<title>vec_18088007599891946824:0&#45;&gt;ast_node_2</title>
<path fill="none" stroke="black" d="M323.5,-1374.99C323.5,-1367.09 323.5,-1357.6 323.5,-1348.78"/>
<polygon fill="black" stroke="black" points="327,-1348.9 323.5,-1338.9 320,-1348.9 327,-1348.9"/>
</g>
<!-- ast_node_44 -->
<g id="node58" class="node">
<title>ast_node_44</title>
<polygon fill="none" stroke="black" points="189,-1593.79 189,-1629.79 342,-1629.79 342,-1593.79 189,-1593.79"/>
<text text-anchor="middle" x="224" y="-1608.09" font-family="Times,serif" font-size="14.00">Module</text>
<polyline fill="none" stroke="black" points="259,-1593.79 259,-1629.79"/>
<text text-anchor="middle" x="300.5" y="-1608.09" font-family="Times,serif" font-size="14.00">functions</text>
</g>
<!-- vec_17216689946888361452 -->
<g id="node59" class="node">
<title>vec_17216689946888361452</title>
<polygon fill="none" stroke="black" points="273.5,-1520.79 273.5,-1556.79 327.5,-1556.79 327.5,-1520.79 273.5,-1520.79"/>
<text text-anchor="middle" x="300.5" y="-1535.09" font-family="Times,serif" font-size="14.00">0</text>
</g>
<!-- ast_node_44&#45;&gt;vec_17216689946888361452 -->
<g id="edge58" class="edge">
<title>ast_node_44:functions&#45;&gt;vec_17216689946888361452</title>
<path fill="none" stroke="black" d="M300.5,-1593.29C300.5,-1585.05 300.5,-1576.1 300.5,-1567.92"/>
<polygon fill="black" stroke="black" points="304,-1568.17 300.5,-1558.17 297,-1568.17 304,-1568.17"/>
</g>
<!-- vec_17216689946888361452&#45;&gt;ast_node_43 -->
<g id="edge57" class="edge">
<title>vec_17216689946888361452:0&#45;&gt;ast_node_43</title>
<path fill="none" stroke="black" d="M300.5,-1520.99C300.5,-1513.09 300.5,-1503.6 300.5,-1494.78"/>
<polygon fill="black" stroke="black" points="304,-1494.9 300.5,-1484.9 297,-1494.9 304,-1494.9"/>
</g>
</g>
</svg>
